<?xml version="1.0" encoding="UTF-8"?><svg id="a" xmlns="http://www.w3.org/2000/svg" xmlns:xlink="http://www.w3.org/1999/xlink" viewBox="0 0 100 100"><defs><linearGradient id="e" x1="313.27" y1="10.88" x2="313.27" y2="65.13" gradientTransform="translate(327.81) rotate(-180) scale(1 -1)" gradientUnits="userSpaceOnUse"><stop offset="0" stop-color="#9d6590"/><stop offset=".22" stop-color="#9b608d"/><stop offset=".46" stop-color="#965385"/><stop offset=".71" stop-color="#8d3d79"/><stop offset=".96" stop-color="#811f67"/><stop offset="1" stop-color="#7f1a64"/></linearGradient><linearGradient id="f" x1="263.93" y1="32.57" x2="312.48" y2="32.57" gradientTransform="translate(327.81) rotate(-180) scale(1 -1)" gradientUnits="userSpaceOnUse"><stop offset="0" stop-color="#894479"/><stop offset=".41" stop-color="#8a467a"/><stop offset=".69" stop-color="#904f81"/><stop offset=".93" stop-color="#995f8b"/><stop offset="1" stop-color="#9d6590"/></linearGradient><linearGradient id="g" x1="57.58" y1="-200.23" x2="57.58" y2="-300.01" gradientTransform="translate(0 -200.23) scale(1 -1)" gradientUnits="userSpaceOnUse"><stop offset="0" stop-color="#ba91b0"/><stop offset=".13" stop-color="#ae79a1"/><stop offset=".4" stop-color="#995086"/><stop offset=".64" stop-color="#8b3273"/><stop offset=".85" stop-color="#822068"/><stop offset="1" stop-color="#7f1a64"/></linearGradient><linearGradient id="i" x1="552.34" y1="502.16" x2="552.34" y2="601.95" gradientTransform="translate(-476.95 601.95) scale(1 -1)" gradientUnits="userSpaceOnUse"><stop offset="0" stop-color="#9d6590"/><stop offset=".5" stop-color="#8e417b"/><stop offset="1" stop-color="#7f1a64"/></linearGradient><linearGradient id="j" x1="112.45" y1="295.55" x2="112.45" y2="328.13" gradientTransform="translate(-136.51 -185.14) rotate(118.41) scale(1 -1)" xlink:href="#e"/></defs><g id="b"><rect id="c" x="0" y="0" width="100" height="100" fill="#4f003e"/><g id="d"><polygon points="29.08 65.13 15.34 65.13 0 36.52 0 10.88 29.08 65.13" fill="url(#e)" opacity=".9"/><polygon points="15.34 65.13 28.97 65.13 63.88 0 50.25 0 15.34 65.13" fill="url(#f)" opacity=".9"/><rect x="50.77" y="0" width="13.6" height="99.78" fill="url(#g)"/></g><g id="h"><polygon points="100 0 92.76 0 50.77 99.78 64.6 99.78 100 15.66 100 0" fill="url(#i)"/><polygon points="100 55.2 100 67.28 64.57 66.99 69.66 54.91 100 55.2" fill="url(#j)" opacity=".9"/></g></g></svg>